<?xml version="1.0" encoding="UTF-8"?>
<svg id="Layer_2" data-name="Layer 2" xmlns="http://www.w3.org/2000/svg" viewBox="0 0 461.17 481.74">
  <defs>
    <style>
      .cls-1 {
        fill: #fff;
      }
    </style>
  </defs>
  <g id="Layer_1-2" data-name="Layer 1">
    <path class="cls-1" d="M382.87,280.6c9.42-9.18,23.18-26.21,27.81-37.64l7.39-18.21c.6-1.49.97-1.83,1.35-3.51l4.34-19.17c1.29-5.69,1.99-11.13,1.45-16.98l-2.51-27.12-2.94-12.15c-1.1-4.53-2.25-9.02-4.23-13.14l-6.62-13.73-3.56-6.82-10.13-15.39c-4.17-6.34-10.11-11-15.44-16.45l-6.37-5.17-15.46-10.61c-5.57-3.82-10.78-7.63-16.93-10.41-3.35-1.51-6.39-3.23-9.89-4.05l-10.77-2.52c-11.36-2.66-22.25-6.19-33.88-7.77l-22.53-3.06c-2.72-.37-5.44-.06-8.14.08l-20.66,1.02c-6.34.31-12.24,1.07-18.34,3.06-2.99.97-5.83,1.07-8.99,1.11-1.27.09-3.64.79-4.9,1.36-2.43,1.11-5.29,1.08-7.55,1.82l-16.54,5.41c-9.82,3.21-19.35,6.66-28.43,11.41l-13.34,6.98-7.17,3.86c-6.87,3.7-13.19,8.17-19.17,13.29l-11.54,9.89c-5.85,5.02-11.49,10.57-16.15,16.71l-9.03,11.89-8.6,12.25-3.6,4.5c-.69.87-1.71,3.04-2.15,4.15l-4.95,12.45c-2.22,5.58-4.13,10.84-7.3,15.87l.92-6.74c-2.67,4.97-4.36,10.11-4.46,16.31l1.72-4.52c-.11,3.8-1.49,6.97-2.28,10.55l-4.44,20.06c-.85,3.82-1.44,7.32-1.25,11.26.16,3.25-.86,6.56-1.15,9.84-.68,7.74.56,15.33.84,23.04.11,3.05.38,5.58.88,8.42l3.22,18.35,4.21,16.11,8.38,25.18,5.78,11.56c2.19,4.39,3.83,9.1,6.63,13.1l15.76,22.47,10.53,11.45,9.14,8.81c8.46,9.24,17.93,16.62,28.72,22.87l14.66,8.49,17.23,7.72c3.89,1.74,7.42,3.58,11.53,4.75l26.39,7.53c1.4.4,3.28,1.09,4.61,1.22l16.16,1.56,11.18.66c3.76.17,7.26.29,10.75,2.19l17.04-.18c5.45-.06,10.13-1.79,15.43-2.67,11.51-1.9,22.42-3.91,33.51-7.59,6.23-2.07,12.08-3.94,17.89-7.07l15.12-8.15,11.23-6.74,10.58-6.83-.89,3.25,4.26-3.79c4.66-5.45,9.27-10.22,14.75-15.09.67-.36,1.54-.45.43.45l.27,2.9-12.94,12.78c-1.1.73.02,1.03.6.61l5.97-5.4,4.38-3.56-1.95,3.21-2.65,3.21.38,3.21.24,2.03c0,.07-10.07,9.92-14.72,12.88-.31.46-1.13,1.66-1.57,1.95l-5.69,3.78,3.37,1.7c2.61-1.63,5.78-3.73,8.06-6.09.85-.87,1.65-1.99,2.44-1.9,2.72.33,2.94-2.82,4.18-3.55,2.84-1.67,3.86-5.06,5.74-6.98l16.31-14.56-3.83,5.53c-.17.35-.3.48-.18.51l1.35.24c-3.78,4.9-7.45,8.86-11.93,13.17-.86.85-.06.91.62.47l9.41-7.33.24,1.39,2.67-1.08-3.9,5.37,3.66-2.5c.62-.73.65-.41.25.33-4.34,3.55-3.96,7.36-6.87,10.2-4.41,4.3-9.07,8.47-14.03,11.93-.2.14-1.06.69-.91.79l1.44.98c-4.67,3.89-9.8,7.4-15.25,10.35-1.66.9-3.16-.67-7.11,1.79l-7.99,4.99-5.16,3.45-8.39,4.61,1.11.69,1.29.08c.71.08,1.27.33-.08.79l1.75.96-10.63,4.06c-3.95,1.51-8.16,2.19-12.41,2.53-4.01.33-7.33,1.17-11.09,2.32-12.8,3.9-26.09,5.93-39.57,6.36l-15.63.49-8.18.46-5.94-.34-27.81-2.87-3.69-1.76c2.39-3.1-.74-.4-6.37-2.2l4.06-1.21-15.88-2.54c-2.92-.47-5.74-.64-8.48-1.57-.06.06-.68.64-.62.67l.94.31,11.22,3.6c-6.48.14-11.92-3.07-18.18-4.74-10-2.68-19.59-6.26-28.11-12.21l-1.4-2.47c-.32-.56-1.57-.27-2.47.35l-6.56-3.07c-3.96-1.85-7.61-3.24-11.22-5.73l-11.62-8c-5.85-4.03-11.34-7.67-16.4-12.62l-14.65-14.31-12.46-14.2-7.76-9.04-14.93-20.92-6.22-10.63c-7.26-12.41-12.7-25.11-17.52-38.62-2.41-6.74-4.27-13.17-5.87-20.23l-2.34-10.33c-1.78-4.75-2.42-9.38-2.94-14.43l-1.57-15.32-.66-19.9.7-15.7c.32-7.21.03-14.39,2.13-21.42.46-1.56.64-2.9.68-4.6.2-8.12,2.83-15.66,5.54-23.14l6.5-17.91c2.02-5.58,3.82-10.98,6.97-16.12,2.99-4.88,4.98-10.02,7.51-15.08,6.15-12.29,14.35-22.68,23.01-33.07l5.03-6.03,3.22-3.15,13.12-12.93c11.25-9.49,26.88-22.69,39.32-28.94l32-16.06,12.93-5.11c7.8-3.08,15.29-5.38,23.48-7.25l24-5.47,20.77-2.96,17.08-2.07c12.1-1.47,17.14,1.52,21.9,1.11,10.81-.93,21.47-.55,32.05,1.48,4.61.88,9.17,1.43,13.61,2.69l13.4,3.81,11.97,3.63c7.11,2.16,13.69,4.62,20.18,8.26l7.81,4.39,16.02,9.48c10.19,6.03,18.75,13.67,26.78,22.41,3.01,3.28,6.74,5.89,9.33,9.6l4.11,5.9c5.18,6.2,10.04,12.51,13.83,19.67l11.26,21.24c3.01,5.67,4.8,11.49,6.87,17.53,2.73,7.94,4.39,15.66,5.48,24l2.13,16.19c.45,3.4.57,7,.31,10.44l-.5,6.52c-.54-1.29-.98-1.43-1.32-.07l1.16,2.33c.12,3.81.48,8.27-.41,12.16l-2.68,11.71-2.02,7.74-2.16,7.87-2.95,9.23-1.48,6.96c-.56.93.38-.25.8-.79l1.87-4.44c-2.31,11.11-7.37,20.91-13.72,30.12l-3.74,5.42-9.08,11.87c-2.2,2.87-4.09,5.82-6.71,8.4l-5.53,5.45-10.2,10.1-13.28,11.49-20.62,13.08-6.29,3.46c-3.12,1.72-7.4,2.02-10,4.4-3.9,3.57-8.36,5.42-13.55,6.29-2.64.44-5.2,1.61-7.71,2.56l-5.14,1.94-6.34,2.39c-9.52,2.83-18.88,4.88-28.76,6.04l-13.53.55c-7.01.6-13.83,1.09-20.84.22-9.48,1.65-18.26-.71-27.44-2.37l-11.4-2.06c-4.67-.84-8.88-2.36-13.21-4.24l-11.36-4.92-9.73-4.68-3.36-2.89-14.94-11.74c-4.1-3.22-8.15-6.53-11.32-10.65l-11.85-15.39c-3.72-4.83-6.17-10-8.94-15.39-4.81-9.38-7.63-18.77-8.89-29.29l-2.14-17.83.67-8.17,1.61-14.16c.46-4.06,1.23-7.96,2.54-11.86l4.82-14.3c1.43-4.25,3.86-7.82,6.52-11.44l9.07-12.32,4.31-4.98,5.84-5.86c9.5-9.53,24.88-19.23,37.71-23.6,7.54-2.57,27.61-7.48,32.79-7.05l9,.75c7.44.62,14.3,2.26,21.14,4.98,5.39,2.14,10.81,4.1,15.12,8.03l7.25,6.63c.26.57.89,1.56,1.42,1.96,1.4,1.07,1.93,2.18,2.95,3.59l2.57,3.56c.89.41,1.17.12.63-.73-2.97-6.79-5.91-12.8-9.83-18.83-2.01-3.1,2.07-3.82,1.57-5.89l-.21-.89c-.31-1.29,2.9,1.4,3.29.39.23-.59-.17-1.96-.2-2.62-.13-2.53-.14-4.65-.71-7.12-.11-.46-.25-1.15-.11-1.02l.98.88.87.78c.25.23.82-.49,1.08-.79l2.02-2.35,2.9,4.89c.55.66.85,1.12,1.26.93,2.44-1.15.42-1.83-.71-5.61l-.61-2.05c-.16-.55,1.31-1.57,1.53-1.45l.28,3.25,1.24-1.27c.2-.2.4.17.64.71.91,2.72,2.25,4.29,4.94,5.08.3.12.77.31.73.14l-.31-1.3c.31-.31,1.06-1.07.39-.39l1.12,1.39-.64-3.32c-.4-2.06-.71-3.31-1.72-5.94,3.36,1.27,1.48,4.74,5.67,8.92l5.33.37c4.82,3.85,7.12,11.43,7.45,11.37l2.16-.4,1.66,7.08,2.05,7.71,1.06-.63c.13.19.65,1.81.96,2.75l1.74,5.25,3.29,8.98c1.54,4.21,2.7,8.18,3.7,12.55l1.53,6.67c.17.73-.15,2.21-.51,3.18l.23,1.24.67-.08.61,3.72c.39,2.36.52,5.5-.21,7.99l-3.3,3.52c-.39.42-1.68,1.04-1.9,1.57-.78,1.88-2.37,2.85-4.49,3.06-1.57.16-2.76,1.56-3.83,2.5-3.06,2.67-7.51,1.69-11.1,2.35l-6.85,1.27-17.96,1.08c-10.84,1.53-21.09,3.96-31.64,6.52l-11.47,2.79c-.65.09-1.23-.19-.94-.48l2.55-1.37c1.05-.2.97-.63-.07-.92l-8.98.8-3.12-1.37-5.67-1.1c2.19-1.06,3.8-.92,5.04-3.29l-6.18,2.18c-.23.08-1.16.35-1.26.14l-.67-1.36,2.68-4.84,3.64-4.64c-2.51-.59-4.31-.55-7.22-.31l1.43-.6c.32-.13.46-1.05.59-1.74.04-.23-.73-.07-1.03.07l-1.2.56c.03.07-.2-.56-.29-.81s.68-.84.95-.98l3.47-1.71c-.14-.17-.62-.63-.45-.76l.73-.56c-.72-.24-1.85-.64-1.71-1.03s.67-1.37,1-1.66l3.26-2.79c1.42-1.22,3.41-.96,4.39-3.4l-5.31.39c1.61-.58,3.58-1.27,4.93-2.3,3.73-2.84,7.81-3.2,12.15-4.37,5.88-1.58,11.39-3.09,18.07-3.65-6.81-12.08-18.04-16.03-31.28-18.38-5.45-.97-10.34.58-15.59,1.9-8.82,2.23-20.95,7.08-27.35,12.7l-4.97,4.36-5.8,5.18-5.72,7.55-5.29,8.7c-1.45,2.39-3.5,4.42-4.31,7.14l-1.56,5.2c.05,2.85-.29,6-1.47,8.73l-.6,2.37c-1.23,4.86-1.64,10.2-.82,15.41l2.8,17.63c.63,3.98,3.39,7.43,4.99,11.15,3.43,7.99,7.68,15.18,13.99,21.58l14.8,12.22c4.06,3.35,9.03,5.31,13.63,7.82,5.53,3.02,10.99,5.42,17.23,6.58l21.89,4.05,6.39.47,9.91.67,5.7.71c13.53-1.3,26.63-3.22,39.69-6.71l20.56-7.28c8.92-3.16,17-7.76,25.23-12.34l11.94-8.32c5.95-4.14,10.65-9.29,15.83-14.34ZM455.2,218.78l2.35-10.15c-2.34,3.34-2.84,6.96-2.35,10.15ZM441.28,262.49l4.45-8.38-1-2.99-4.37,10.05.93,1.31ZM357.64,442.99l3.36-2.2-.79-.15-6.15,2.56c.63.47.96.67.88.92l-.45,1.29,3.15-2.42ZM155.76,463.82c-2.14-1.47-4.11-2.66-6.75-2.84,2.61,2.22,5.42,3.88,8.92,4.03l-2.16-1.18ZM275.61,475.93l6.17-.32c3.16-.17,5.94-.66,8.77-1.76l-4.19.18-12.1,1.19-5.37.92,4.42.94c.06-.4.06-1.03.41-1.05l1.9-.1ZM229.02,476.61l-8.5-.37-4.19-.1,7.03,2.22,5.67-1.75Z"/>
  </g>
</svg>